<?xml version="1.0" standalone="no"?>
<!DOCTYPE svg PUBLIC "-//W3C//DTD SVG 20010904//EN"
 "http://www.w3.org/TR/2001/REC-SVG-20010904/DTD/svg10.dtd">
<svg version="1.0" xmlns="http://www.w3.org/2000/svg"
 width="800.000000pt" height="800.000000pt" viewBox="0 0 800.000000 800.000000"
 preserveAspectRatio="xMidYMid meet">
<metadata>
Created by potrace 1.14, written by Peter Selinger 2001-2017
</metadata>
<g transform="translate(0.000000,800.000000) scale(0.100000,-0.100000)"
fill="#000000" stroke="none">
<path d="M3403 7446 c-18 -8 -33 -13 -33 -10 0 6 -73 -25 -80 -34 -3 -5 -27
-19 -55 -31 -99 -46 -171 -102 -264 -205 -18 -21 -54 -47 -80 -58 -41 -18 -52
-18 -106 -7 -49 10 -127 43 -180 77 -25 16 -76 29 -127 31 -100 4 -148 -27
-302 -189 -64 -69 -237 -208 -363 -294 -24 -16 -43 -32 -43 -35 0 -4 -30 -38
-68 -76 -64 -66 -152 -196 -152 -224 0 -7 -8 -25 -19 -39 -41 -58 -54 -137
-54 -312 1 -94 6 -184 13 -210 6 -25 16 -66 22 -92 6 -27 15 -48 19 -48 5 0 9
-5 9 -11 0 -6 9 -22 20 -36 11 -14 20 -38 20 -53 0 -34 23 -56 37 -38 6 7 15
47 21 88 30 194 58 334 69 337 8 3 14 -13 19 -47 4 -28 11 -53 15 -56 5 -3 9
-16 9 -29 0 -13 5 -27 10 -30 6 -4 8 -10 5 -15 -3 -5 2 -13 11 -18 20 -11 15
-89 -10 -144 -9 -21 -16 -40 -16 -44 0 -3 -6 -20 -14 -37 -7 -18 -19 -47 -26
-65 -8 -21 -18 -31 -27 -28 -10 4 -11 1 -5 -12 5 -9 7 -27 7 -39 -2 -19 1 -18
30 13 18 19 37 34 43 34 6 0 36 20 66 45 31 25 58 45 61 45 2 0 0 -12 -6 -27
-25 -64 -40 -172 -34 -233 2 -25 7 -76 10 -113 4 -37 8 -77 10 -87 5 -26 -32
-48 -93 -56 -53 -7 -57 -4 -106 61 l-15 20 -2 -20 c-11 -125 64 -232 178 -255
47 -10 62 -9 102 6 25 10 52 24 59 31 23 23 31 14 20 -24 -17 -61 -5 -211 20
-258 26 -49 51 -79 79 -94 29 -15 93 -14 93 1 0 7 17 -5 38 -25 21 -20 43 -37
50 -37 14 0 10 -35 -12 -110 -13 -44 -7 -90 12 -90 13 0 39 32 46 57 4 12 25
41 46 65 22 24 40 48 40 55 0 6 6 18 14 25 7 8 22 30 32 48 24 46 29 23 14
-72 -6 -40 -12 -80 -12 -87 -1 -8 -14 -51 -30 -95 -39 -108 -43 -130 -25 -144
20 -17 61 2 76 34 6 13 15 24 20 24 21 0 56 68 67 130 l11 65 22 -50 c13 -27
33 -60 44 -73 11 -12 22 -31 24 -42 6 -40 32 -90 47 -90 13 0 16 13 16 68 l1
67 20 -25 c67 -82 106 -123 132 -136 39 -20 61 -11 53 21 -5 21 -3 25 17 25
37 0 86 82 87 145 1 69 -7 142 -21 182 -8 26 -16 33 -37 33 -29 0 -97 22 -143
45 -60 32 -151 193 -162 290 -8 65 -41 138 -80 176 -20 20 -37 40 -37 45 0 5
-7 23 -16 39 -11 22 -16 62 -16 155 -1 136 17 221 65 315 30 61 51 80 97 92
l35 10 -3 59 c-2 32 -3 75 -2 94 2 53 1 201 -1 237 -3 36 25 74 72 99 15 7 34
30 44 51 45 96 101 160 122 139 3 -3 11 2 18 11 12 16 40 9 30 -8 -4 -5 1 -9
9 -9 8 0 16 -8 18 -17 2 -13 14 -7 58 28 80 65 132 87 221 96 34 4 54 0 80
-16 19 -12 40 -21 47 -21 8 0 28 -10 45 -22 20 -14 47 -22 81 -24 62 -2 78 -8
136 -49 25 -18 61 -35 80 -39 19 -3 52 -22 72 -41 63 -58 84 -115 78 -205 -2
-34 4 -110 8 -110 3 0 13 7 22 15 9 8 26 16 38 18 11 2 30 11 40 20 10 9 23
17 28 17 5 0 26 18 47 40 20 22 36 40 33 40 -2 0 12 16 30 36 19 19 34 42 34
50 0 8 4 14 10 14 8 0 40 51 40 65 1 3 4 15 9 27 5 14 10 18 15 10 4 -7 12 -9
18 -6 7 4 8 2 4 -4 -4 -7 -2 -12 4 -12 6 0 8 -5 5 -10 -12 -20 60 -39 129 -36
52 3 79 -1 124 -20 31 -13 67 -24 80 -24 12 0 22 -4 22 -10 0 -5 13 -8 29 -6
23 2 28 0 23 -12 -3 -9 -1 -13 5 -9 6 4 16 0 23 -8 7 -8 16 -12 21 -9 5 3 9 2
9 -3 0 -4 19 -17 43 -28 84 -40 101 -85 101 -270 0 -150 -33 -268 -114 -409
-22 -38 -40 -76 -40 -85 0 -9 -4 -21 -9 -27 -6 -5 -13 -22 -16 -39 -17 -78
-25 -137 -20 -146 4 -5 1 -9 -5 -9 -18 0 29 -82 73 -127 23 -24 45 -43 49 -43
5 0 43 -29 86 -65 42 -36 85 -65 95 -65 10 0 16 -4 13 -9 -3 -5 5 -12 18 -15
13 -3 46 -26 73 -52 49 -47 111 -84 138 -84 15 0 20 12 9 23 -4 3 -17 37 -30
74 -26 74 -30 135 -13 180 6 15 13 39 15 53 4 21 17 70 30 115 14 46 57 174
64 190 20 42 79 228 87 268 4 23 8 128 8 232 0 195 -9 261 -45 315 -9 14 -32
59 -51 100 -19 41 -43 91 -52 110 -36 78 -111 187 -184 271 -81 92 -179 143
-344 178 -19 4 -40 11 -46 14 -6 4 -66 12 -134 18 -136 12 -157 20 -208 73
-19 20 -40 36 -47 36 -7 0 -14 5 -16 10 -2 6 -13 12 -26 13 -12 0 -22 4 -22 8
0 11 -51 29 -86 29 -35 0 -110 41 -97 53 3 4 1 7 -5 7 -7 0 -22 21 -34 48 -32
68 -79 142 -91 142 -6 0 -8 3 -4 6 15 16 -179 194 -212 194 -6 0 -11 5 -11 10
0 6 -6 10 -14 10 -8 0 -16 4 -18 8 -5 14 -100 54 -114 48 -7 -3 -14 0 -16 6
-6 18 -128 21 -165 4z"/>
<path d="M3310 6397 c3 -3 23 -10 44 -16 22 -5 35 -6 30 -2 -9 9 -83 27 -74
18z"/>
<path d="M4225 5710 c-11 -4 -32 -5 -47 -3 -18 4 -28 1 -28 -6 0 -7 -4 -10 -8
-7 -5 3 -25 -6 -45 -19 -20 -14 -39 -25 -43 -25 -29 0 -184 -160 -233 -242
-21 -36 -22 -38 -4 -38 11 0 44 22 74 48 57 51 120 97 131 97 3 0 10 3 14 8 4
4 2 7 -5 7 -9 0 -9 4 1 14 8 9 17 11 23 5 12 -12 28 -12 20 1 -3 6 1 7 9 4 9
-3 16 -2 16 3 0 5 14 10 32 11 18 2 35 6 38 10 16 23 272 17 290 -7 3 -3 15
-7 26 -9 17 -2 23 3 26 28 4 26 -2 38 -33 70 -43 43 -92 56 -179 48 -27 -3
-51 -2 -52 2 -2 4 -12 4 -23 0z"/>
<path d="M4556 5475 c-16 -14 -33 -25 -38 -25 -5 0 -26 -12 -45 -27 l-36 -28
5 28 c6 33 5 33 -25 3 -24 -24 -123 -54 -135 -41 -4 4 -1 10 6 12 6 3 12 11
12 18 0 7 6 16 13 18 9 4 9 6 0 6 -7 1 -18 -8 -25 -19 -7 -11 -18 -20 -25 -20
-7 0 -13 -5 -13 -12 0 -6 -3 -8 -6 -5 -4 4 -19 -2 -33 -12 -14 -10 -32 -16
-38 -14 -7 3 -13 0 -13 -6 0 -6 -6 -11 -14 -11 -7 0 -21 -11 -30 -25 -9 -14
-23 -25 -32 -25 -14 0 -138 -120 -125 -120 3 0 -2 -7 -12 -15 -50 -37 -73 -94
-47 -115 8 -7 40 -76 40 -88 0 -17 28 -21 40 -6 10 11 10 14 1 14 -7 0 -10 3
-7 8 2 4 -8 26 -24 48 -23 34 -25 44 -16 61 13 24 131 153 140 153 10 0 3 -54
-11 -74 -10 -16 -10 -23 0 -35 9 -12 9 -13 0 -7 -7 4 -13 3 -13 -3 0 -5 4 -12
9 -15 4 -3 6 -18 3 -32 -3 -16 -1 -25 5 -21 5 3 9 -4 9 -15 -1 -13 8 -27 21
-33 13 -7 20 -15 16 -18 -3 -4 -1 -7 5 -7 6 0 14 4 17 10 3 5 16 15 28 21 22
10 22 10 -1 -8 -22 -18 -22 -18 -2 -31 17 -10 21 -10 26 3 4 8 10 15 16 15 5
0 6 -4 3 -10 -3 -5 2 -10 13 -10 24 0 82 52 82 73 0 9 5 19 10 22 17 10 48 78
55 120 l8 40 -22 -28 c-34 -41 -56 -50 -95 -37 -48 15 -64 57 -42 105 32 67
132 84 146 24 5 -22 7 -22 13 -5 4 11 3 22 -3 26 -15 9 -8 59 9 65 7 3 22 3
32 0 23 -8 87 21 116 52 12 13 29 23 38 23 8 0 15 4 15 10 0 5 10 18 22 30 21
19 21 20 2 20 -10 0 -32 -11 -48 -25z m-417 -347 c26 3 30 0 36 -27 8 -39 1
-51 -33 -51 -38 0 -48 11 -46 45 2 42 5 52 10 39 2 -6 17 -9 33 -6z"/>
<path d="M3460 5332 c0 -4 -14 -13 -30 -21 -23 -10 -34 -10 -45 -1 -10 9 -19
8 -39 -5 -16 -10 -56 -19 -105 -22 -43 -3 -85 -9 -91 -13 -9 -6 -9 -46 0 -176
7 -93 13 -181 13 -196 0 -16 4 -28 8 -28 5 0 9 11 9 24 0 20 4 23 22 18 15 -3
19 -2 14 7 -4 6 -2 18 4 26 7 8 10 15 7 15 -9 0 18 60 55 120 83 135 101 161
119 170 11 6 16 16 12 26 -4 11 0 14 20 10 21 -4 29 1 41 25 12 25 12 29 0 29
-8 0 -14 -3 -14 -8z"/>
<path d="M3178 4859 c-10 -5 -18 -19 -18 -31 0 -16 3 -18 14 -9 11 9 30 52 23
51 -1 0 -10 -5 -19 -11z"/>
<path d="M4197 4864 c-4 -4 -36 -6 -71 -5 -101 3 -104 -41 -3 -46 66 -3 119
13 115 35 -3 18 -29 27 -41 16z"/>
<path d="M4075 4240 c-13 -21 8 -51 73 -102 37 -29 69 -55 72 -58 20 -23 117
-68 179 -84 l73 -18 23 23 c13 13 26 33 29 44 5 19 1 20 -67 21 -99 2 -239 51
-278 97 l-27 32 29 3 c15 2 38 -2 51 -8 22 -11 22 -10 4 4 -11 9 -28 16 -38
16 -10 0 -36 9 -58 20 -44 23 -56 24 -65 10z"/>
<path d="M4535 4110 c-3 -5 -1 -10 4 -10 6 0 11 5 11 10 0 6 -2 10 -4 10 -3 0
-8 -4 -11 -10z"/>
<path d="M5347 3912 c-9 -2 -15 -7 -12 -12 3 -5 13 -6 22 -3 11 4 14 3 9 -5
-4 -7 -13 -12 -21 -12 -7 0 -12 -8 -10 -17 1 -10 -6 -29 -15 -43 -10 -14 -18
-27 -18 -30 0 -3 -5 -25 -12 -50 -7 -25 -13 -52 -15 -60 -2 -8 -8 -28 -14 -44
-7 -16 -14 -45 -17 -65 -3 -20 -12 -60 -20 -88 -9 -29 -13 -57 -10 -62 4 -5 2
-12 -2 -15 -5 -3 -9 -43 -10 -88 -1 -129 -10 -222 -27 -262 -8 -20 -13 -36
-11 -36 3 0 -7 -26 -21 -57 -63 -143 -173 -460 -193 -558 -7 -33 -16 -68 -22
-78 -10 -20 -37 -198 -44 -302 -3 -38 -9 -83 -13 -99 l-7 -30 -23 37 c-12 20
-27 37 -32 37 -6 0 -8 4 -5 9 4 5 2 11 -3 13 -4 1 -64 86 -131 188 -68 102
-127 187 -132 188 -4 2 -8 9 -8 16 0 7 -9 21 -20 31 -11 10 -20 24 -20 32 0 7
-3 13 -8 13 -4 0 -13 14 -20 30 -8 17 -28 48 -45 69 -18 21 -39 48 -47 61 -35
51 -68 89 -74 83 -3 -3 -6 -1 -6 6 0 17 -63 100 -76 101 -6 0 -16 11 -23 24
-8 13 -45 52 -83 87 -56 49 -72 59 -80 48 -8 -11 -9 -11 -5 3 3 9 -3 24 -14
34 -10 9 -19 23 -19 29 0 7 -7 18 -15 25 -8 7 -15 20 -15 30 0 9 -9 25 -20 35
-36 32 -100 150 -100 183 0 19 -8 40 -20 52 -11 11 -20 22 -20 25 0 3 -11 23
-25 44 -23 38 -26 39 -55 28 -34 -13 -36 -19 -15 -41 23 -22 18 -36 -12 -36
-16 0 -37 -7 -47 -15 -11 -8 -29 -15 -41 -15 -29 0 -65 27 -65 49 0 20 -50 37
-60 21 -8 -12 -131 42 -161 71 -14 13 -51 47 -82 76 -31 28 -57 56 -57 61 0 6
-9 14 -20 17 -11 4 -18 10 -15 15 11 17 -127 72 -180 73 -61 0 -89 -14 -135
-66 -19 -23 -45 -51 -56 -64 -33 -36 -114 -208 -114 -243 0 -10 -9 -21 -20
-25 -10 -3 -30 -18 -42 -33 -13 -15 -48 -46 -78 -68 -58 -43 -166 -157 -159
-167 2 -4 -6 -14 -19 -23 -18 -12 -73 -102 -77 -124 0 -3 -6 -15 -13 -28 -7
-12 -10 -27 -7 -32 3 -6 2 -10 -3 -10 -9 0 -31 -64 -39 -115 -3 -16 -6 -34 -6
-40 -1 -5 -5 -12 -9 -15 -10 -8 -13 -316 -4 -445 8 -124 23 -186 48 -193 15
-4 24 -27 19 -54 0 -5 2 -8 7 -8 4 0 8 -14 9 -30 1 -17 11 -43 22 -59 11 -15
23 -39 26 -54 4 -15 12 -27 18 -27 6 0 7 -3 4 -6 -4 -4 2 -19 12 -33 10 -14
22 -36 25 -48 4 -13 12 -23 17 -23 5 0 9 -9 9 -20 0 -11 5 -20 10 -20 6 0 10
-6 10 -14 0 -8 6 -21 13 -28 7 -7 24 -31 37 -53 33 -55 123 -179 133 -183 4
-2 7 -9 7 -16 0 -18 124 -167 225 -270 33 -34 75 -79 93 -101 47 -56 256 -279
322 -344 30 -29 91 -89 136 -132 44 -44 84 -79 87 -79 3 0 26 -13 50 -30 25
-16 49 -30 55 -30 5 0 15 -7 22 -15 7 -8 16 -12 21 -9 5 3 9 0 9 -6 0 -7 7
-10 15 -6 8 3 14 0 12 -7 -1 -7 8 -12 21 -11 12 0 22 -3 22 -7 0 -11 69 -32
88 -27 10 3 23 -1 30 -8 9 -9 49 -12 164 -9 84 2 171 6 193 9 22 2 85 10 140
16 55 7 115 19 134 26 19 8 36 12 39 10 2 -3 21 4 40 15 20 10 43 19 51 19 8
0 39 17 69 38 64 44 104 68 115 70 16 4 148 105 162 125 12 17 24 21 57 20 23
-1 47 2 54 8 7 5 16 9 20 7 17 -5 89 31 124 61 19 17 41 31 48 31 6 0 21 8 31
18 10 9 31 27 46 40 39 32 105 114 99 123 -2 4 -1 9 3 11 9 4 63 74 63 82 0 3
18 35 40 71 22 36 39 69 38 73 -1 4 4 20 11 37 7 16 10 37 8 47 -3 10 -1 16 3
13 10 -6 32 64 24 77 -3 4 0 8 7 8 7 0 10 3 6 6 -3 3 3 26 14 51 10 24 19 55
19 67 0 13 3 26 7 30 4 3 8 12 9 19 7 48 49 227 70 297 14 47 27 108 30 135 3
28 9 54 15 59 5 6 9 22 9 37 0 15 4 39 10 54 5 14 12 36 14 48 3 19 21 86 32
122 11 34 29 117 38 175 3 14 5 27 7 30 1 3 3 10 4 15 7 40 32 99 50 118 12
12 25 40 28 62 3 22 10 67 16 100 15 88 4 256 -19 310 -7 17 -14 39 -16 50 -1
11 -6 38 -9 60 -4 22 -7 48 -8 57 -1 9 -4 15 -8 12 -4 -2 -4 17 -1 41 4 38 2
45 -13 45 -14 0 -15 3 -6 14 8 9 8 21 1 40 -5 14 -6 25 -2 23 4 -1 9 3 12 8 3
6 -6 11 -20 13 -49 5 -175 35 -187 45 -7 5 -29 11 -49 14 -20 3 -45 14 -55 24
-11 11 -24 17 -30 14 -5 -4 -8 -3 -7 2 3 13 -13 53 -22 53 -5 0 -12 9 -15 20
-4 11 -11 18 -16 15 -5 -3 -6 0 -3 8 3 8 -2 21 -10 30 -9 9 -16 22 -16 31 0 8
-8 20 -17 25 -10 6 -15 11 -10 11 4 0 -4 23 -18 50 -14 28 -23 55 -20 60 3 5
-2 13 -11 18 -10 6 -15 16 -11 25 7 19 -22 45 -46 39z m20 -124 c-3 -8 -6 -5
-6 6 -1 11 2 17 5 13 3 -3 4 -12 1 -19z m-1 -33 c-3 -9 0 -15 10 -15 8 0 19
-11 24 -25 5 -14 14 -25 19 -25 5 0 12 -12 16 -27 12 -48 68 -132 95 -142 14
-5 18 -10 10 -10 -17 -2 7 -24 75 -69 65 -43 117 -64 178 -69 l57 -6 0 -51 c0
-28 5 -67 11 -86 51 -168 53 -183 53 -340 0 -174 -1 -185 -30 -225 l-21 -28
-51 16 c-27 9 -68 20 -89 23 -92 14 -196 61 -250 113 -12 12 -28 21 -34 21 -7
0 -10 3 -6 6 5 5 -2 16 -38 58 -12 14 -20 26 -77 121 -24 39 -44 77 -45 85 -1
8 -5 40 -9 70 -3 30 -7 118 -8 195 -1 128 1 147 27 223 15 46 27 94 27 107 0
13 11 37 25 53 13 16 22 32 18 36 -3 3 -1 6 6 6 8 0 11 -7 7 -15z m-2302 -97
c6 -7 27 -35 45 -62 48 -70 177 -194 226 -217 49 -23 85 -30 185 -34 94 -3
137 -12 144 -30 3 -8 20 -21 39 -28 21 -9 38 -26 46 -45 22 -52 -4 -190 -54
-297 -18 -38 -37 -83 -41 -98 -9 -39 -25 -42 -86 -19 -115 44 -224 83 -244 86
-39 8 -110 34 -150 57 -48 27 -117 72 -124 80 -3 3 -50 36 -105 73 -55 37
-102 71 -105 75 -3 5 -19 15 -36 24 -39 20 -69 93 -54 133 7 17 7 23 -1 19
-12 -8 15 58 39 96 54 84 75 110 117 147 26 23 50 40 54 37 4 -2 13 0 21 6 21
13 69 11 84 -3z m-383 -406 c6 -20 21 -48 33 -62 24 -27 111 -90 125 -90 5 0
14 -7 21 -15 10 -12 2 -31 -42 -106 -29 -51 -60 -111 -69 -133 l-17 -41 -61
-1 c-59 -1 -81 -9 -220 -71 -50 -23 -116 -93 -151 -163 -17 -34 -33 -60 -35
-58 -12 11 20 147 65 286 29 86 54 164 55 174 8 41 45 89 151 195 63 63 114
119 114 124 0 22 20 -4 31 -39z m1206 -160 c12 -20 31 -55 43 -77 20 -36 60
-139 60 -154 0 -9 -49 53 -50 62 0 5 -10 23 -22 40 -28 38 -44 65 -57 94 -5
11 -14 24 -19 27 -14 8 -2 55 12 50 7 -3 22 -22 33 -42z m-872 -117 c69 -47
132 -85 140 -85 8 0 15 -4 15 -9 0 -11 67 -37 133 -51 26 -6 67 -19 91 -31 24
-11 54 -21 67 -23 13 -1 46 -13 73 -25 65 -30 135 -32 163 -6 11 11 31 49 43
85 12 36 31 81 41 100 15 29 18 31 19 13 0 -12 6 -46 14 -75 26 -93 30 -105
72 -203 7 -16 27 -66 44 -110 49 -125 121 -251 188 -331 73 -87 109 -164 187
-398 25 -75 64 -171 85 -213 22 -42 40 -84 40 -94 0 -10 4 -20 9 -24 6 -3 10
-13 9 -23 0 -15 17 -99 26 -127 11 -34 16 -68 20 -130 11 -154 18 -212 31
-260 23 -86 35 -155 36 -203 0 -26 6 -80 13 -120 7 -39 11 -72 9 -72 -2 0 -13
21 -24 47 -11 26 -24 50 -29 53 -5 3 -11 15 -13 25 -4 21 -56 140 -82 187 -8
16 -23 43 -32 60 -10 18 -20 35 -23 38 -3 3 -22 30 -42 60 -21 30 -46 61 -58
68 -13 8 -20 21 -18 40 2 39 -23 87 -137 257 -55 83 -111 170 -124 195 -42 83
-69 131 -82 146 -6 8 -19 27 -28 44 -32 58 -186 260 -198 260 -7 0 -12 3 -11
8 4 10 -143 204 -150 197 -5 -5 -35 24 -66 68 -11 14 -24 23 -29 20 -6 -3 -7
-1 -3 5 3 6 -12 26 -35 44 -61 49 -137 114 -199 169 -98 87 -115 100 -142 115
-16 8 -28 18 -28 23 0 11 -98 53 -130 56 -14 1 -36 6 -49 10 -34 10 -19 -7 26
-30 21 -11 44 -26 51 -32 7 -7 18 -13 23 -13 6 0 28 -17 49 -37 21 -21 57 -54
81 -73 23 -19 65 -58 93 -86 28 -28 73 -68 101 -90 95 -75 180 -179 235 -289
24 -48 236 -337 252 -343 4 -2 8 -8 8 -13 0 -6 5 -15 10 -22 6 -7 27 -37 47
-67 20 -30 61 -88 92 -129 88 -116 129 -174 147 -206 10 -16 34 -53 56 -81 21
-28 38 -56 38 -62 0 -7 5 -12 12 -12 6 0 8 -3 5 -6 -3 -4 -1 -16 5 -28 7 -11
11 -25 10 -29 -1 -4 22 -38 52 -75 29 -37 63 -86 75 -109 22 -43 46 -68 34
-36 -3 10 -3 15 1 12 4 -4 9 -16 11 -29 2 -12 13 -41 24 -64 31 -66 58 -129
65 -153 4 -13 11 -23 15 -23 4 0 7 -8 8 -17 1 -10 18 -53 37 -95 20 -42 36
-79 36 -81 0 -8 -84 -34 -150 -47 -255 -50 -370 -54 -525 -20 -55 12 -118 25
-140 29 -37 7 -69 22 -150 72 -16 10 -56 32 -87 49 -63 33 -195 163 -534 525
-31 33 -87 93 -125 132 -74 78 -162 191 -224 288 -21 33 -41 62 -44 65 -12 9
-78 104 -101 145 -73 130 -162 303 -180 349 -18 48 -29 152 -20 193 5 21 12
65 16 98 3 33 15 77 25 97 11 21 19 44 19 53 0 8 4 15 9 15 5 0 17 17 26 38
38 79 70 115 150 166 89 58 121 72 182 80 28 4 43 2 46 -7 8 -23 41 8 49 48 5
21 21 65 37 99 16 33 33 77 37 96 7 33 10 43 13 55 2 10 14 3 136 -80z m2272
-58 c45 -98 149 -211 235 -255 84 -43 242 -75 316 -65 l45 6 -6 -29 c-6 -33
-32 -141 -47 -196 -25 -96 -30 -116 -34 -168 -2 -32 -17 -84 -36 -125 -27 -59
-32 -82 -34 -155 -1 -47 -8 -95 -14 -107 -7 -13 -10 -23 -8 -23 3 0 -8 -25
-24 -57 -16 -31 -27 -60 -24 -65 3 -4 0 -8 -7 -8 -7 0 -9 -3 -6 -6 3 -4 2 -14
-3 -24 -5 -9 -11 -41 -14 -70 -3 -30 -21 -106 -41 -169 -20 -64 -44 -141 -53
-171 -19 -66 -69 -179 -87 -200 -8 -8 -20 -27 -28 -42 -65 -126 -391 -343
-440 -294 -7 7 -24 15 -37 18 -14 3 -31 7 -39 9 -10 3 -17 -6 -21 -26 -3 -20
-8 -26 -13 -17 -5 7 -6 21 -2 32 7 23 -18 46 -146 130 -50 33 -64 56 -74 121
-3 24 -8 58 -11 74 -3 17 -5 39 -4 50 1 78 -39 240 -64 257 -6 4 -8 8 -4 8 4
0 1 18 -7 41 -8 23 -12 51 -9 64 6 25 -61 229 -100 305 -13 25 -26 55 -30 67
-4 12 -24 53 -44 90 -21 37 -51 100 -67 138 -16 39 -34 79 -41 90 -7 11 -15
31 -19 45 -4 14 -13 39 -20 55 -16 37 -27 67 -30 80 -9 36 -79 241 -84 245 -3
3 -7 12 -9 20 -3 19 -25 63 -34 70 -3 3 -13 25 -21 48 -13 37 -13 47 -2 69 8
14 11 40 8 57 -3 17 -7 49 -10 71 l-4 40 15 -27 c8 -15 26 -40 40 -55 14 -15
26 -31 26 -35 0 -7 89 -129 121 -167 45 -52 143 -191 188 -266 30 -49 97 -155
150 -235 52 -80 100 -152 106 -161 53 -82 95 -143 131 -190 l42 -56 1 -214 c0
-147 4 -231 13 -269 l14 -55 16 50 c13 40 18 110 22 335 3 157 8 308 11 335 6
60 11 107 23 245 9 97 45 223 73 254 5 6 9 16 9 22 0 7 5 25 11 41 7 15 13 37
14 48 7 49 39 154 59 195 12 25 30 70 40 100 37 114 70 195 80 202 7 5 13 -8
17 -35 3 -23 15 -63 26 -90z m-1423 13 c26 -38 53 -75 59 -82 34 -34 87 -113
87 -127 0 -10 4 -21 8 -26 8 -9 19 -42 53 -160 4 -16 16 -61 25 -100 10 -38
21 -78 26 -87 5 -11 5 -18 -2 -18 -5 0 -24 26 -40 58 -17 31 -41 75 -53 97
-13 22 -42 87 -66 145 -25 58 -48 110 -53 116 -5 7 -11 20 -13 30 -7 34 -66
189 -76 199 -9 9 -12 25 -5 25 2 0 24 -31 50 -70z"/>
</g>
</svg>
